<svg width="222" height="128" viewBox="0 0 222 128" fill="none" xmlns="http://www.w3.org/2000/svg">
<path fill-rule="evenodd" clip-rule="evenodd" d="M111 0.71286C169.499 0.71286 217.409 46.0504 221.509 103.505C221.823 107.912 218.211 111.506 213.793 111.506H143.538C138.966 111.506 135.437 107.584 134.111 103.209C133.89 102.48 133.633 101.754 133.34 101.034C130.974 95.2264 126.636 90.8131 121.43 88.2485C120.012 87.5499 118.714 86.5998 117.792 85.3154L101.229 62.2403C95.6089 54.4107 83.2629 59.4417 84.7159 68.9693L88.7482 95.4105C89.0192 97.1876 88.6413 98.9863 87.9344 100.639C87.5751 101.479 87.2622 102.339 86.9976 103.215C85.6761 107.589 82.1472 111.506 77.5778 111.506H8.2069C3.78863 111.506 0.176878 107.912 0.491374 103.505C4.59143 46.0504 52.5011 0.71286 111 0.71286ZM111.33 12.5276C112.987 12.5468 114.314 13.9054 114.295 15.5621L114.072 34.8262C114.053 36.4829 112.694 37.8104 111.038 37.7912C109.381 37.772 108.053 36.4134 108.072 34.7567L108.296 15.4927C108.315 13.8359 109.673 12.5084 111.33 12.5276ZM85.2982 15.6735C86.9022 15.2584 88.539 16.2222 88.9542 17.8262L93.7811 36.477C94.1963 38.081 93.2325 39.7178 91.6285 40.1329C90.0245 40.5481 88.3876 39.5843 87.9725 37.9803L83.1455 19.3295C82.7304 17.7255 83.6942 16.0886 85.2982 15.6735ZM136.76 16.1377C138.356 16.5832 139.289 18.2381 138.843 19.8339L133.663 38.3898C133.218 39.9856 131.563 40.9182 129.967 40.4727C128.371 40.0272 127.439 38.3724 127.884 36.7766L133.064 18.2207C133.51 16.6248 135.164 15.6923 136.76 16.1377ZM60.9962 25.5786C62.435 24.757 64.2674 25.2574 65.089 26.6961L74.6423 43.4259C75.4639 44.8647 74.9636 46.6972 73.5248 47.5188C72.086 48.3404 70.2536 47.84 69.432 46.4012L59.8787 29.6714C59.0571 28.2326 59.5574 26.4002 60.9962 25.5786ZM160.27 26.1225C161.697 26.9652 162.17 28.8048 161.327 30.2313L151.529 46.8186C150.686 48.2451 148.846 48.7184 147.42 47.8757C145.993 47.033 145.52 45.1934 146.363 43.7668L156.161 27.1796C157.004 25.7531 158.844 25.2798 160.27 26.1225ZM40.6595 41.0284C41.8395 39.8653 43.739 39.8791 44.902 41.0592L58.4253 54.7805C59.5883 55.9605 59.5745 57.86 58.3945 59.023C57.2144 60.186 55.315 60.1722 54.1519 58.9922L40.6286 45.2709C39.4656 44.0908 39.4794 42.1914 40.6595 41.0284ZM180.884 42.2466C182.043 43.4309 182.022 45.3303 180.838 46.489L167.067 59.9624C165.883 61.1211 163.984 61.1004 162.825 59.9161C161.666 58.7319 161.687 56.8325 162.871 55.6738L176.642 42.2004C177.826 41.0417 179.725 41.0624 180.884 42.2466ZM24.6462 61.6313C25.4837 60.2017 27.3215 59.7217 28.7512 60.5591L45.3744 70.2968C46.804 71.1342 47.284 72.9721 46.4466 74.4017C45.6091 75.8313 43.7713 76.3114 42.3417 75.4739L25.7185 65.7363C24.2888 64.8988 23.8088 63.061 24.6462 61.6313ZM196.303 62.7075C197.119 64.1493 196.612 65.9798 195.17 66.7961L178.405 76.2877C176.963 77.104 175.133 76.5969 174.317 75.1551C173.5 73.7133 174.007 71.8827 175.449 71.0664L192.214 61.5748C193.656 60.7586 195.487 61.2656 196.303 62.7075ZM14.7124 85.2149C15.1518 83.6173 16.8031 82.6785 18.4006 83.118L36.976 88.2275C38.5735 88.6669 39.5123 90.3182 39.0729 91.9157C38.6335 93.5132 36.9822 94.452 35.3847 94.0126L16.8093 88.9031C15.2117 88.4637 14.2729 86.8124 14.7124 85.2149ZM206.09 86.9995C206.499 88.605 205.529 90.2382 203.923 90.6472L185.254 95.4033C183.648 95.8123 182.015 94.8424 181.606 93.2368C181.197 91.6312 182.167 89.9981 183.773 89.589L202.442 84.8329C204.047 84.4239 205.68 85.3939 206.09 86.9995Z" fill="white"/>
<path d="M96.7697 100.427C97.0138 100.087 97.1265 99.6666 97.0633 99.2522L92.2694 67.8174C92.0273 66.2295 94.0849 65.391 95.0216 66.6959L114.156 93.3532C114.37 93.6516 114.685 93.8602 115.04 93.9576C119.947 95.3066 124.195 98.8398 126.264 103.917C129.8 112.593 125.632 122.493 116.956 126.028C108.28 129.564 98.3801 125.397 94.8446 116.72C92.562 111.119 93.4902 105.007 96.7697 100.427Z" fill="white"/>
</svg>
